<svg width="21" height="21" viewBox="0 0 21 21" fill="none" xmlns="http://www.w3.org/2000/svg">
<path d="M7.16721 10.0625C7.16721 8.2216 8.6591 6.7289 10.5 6.7289C12.3409 6.7289 13.8336 8.2216 13.8336 10.0625C13.8336 11.9034 12.3409 13.3961 10.5 13.3961C8.6591 13.3961 7.16721 11.9034 7.16721 10.0625ZM5.36511 10.0625C5.36511 12.8985 7.66398 15.1974 10.5 15.1974C13.336 15.1974 15.6349 12.8985 15.6349 10.0625C15.6349 7.22647 13.336 4.9276 10.5 4.9276C7.66398 4.9276 5.36511 7.22647 5.36511 10.0625ZM14.6381 4.72405C14.6381 5.38641 15.1753 5.92437 15.8385 5.92437C16.5008 5.92437 17.0388 5.38641 17.0388 4.72405C17.0388 4.06169 16.5016 3.52454 15.8385 3.52454C15.1753 3.52454 14.6381 4.06169 14.6381 4.72405ZM6.45961 18.2022C5.48465 18.1578 4.95477 17.9955 4.60259 17.8581C4.1357 17.6764 3.80291 17.4599 3.45234 17.1102C3.10259 16.7604 2.8853 16.4276 2.70436 15.9607C2.56704 15.6085 2.40469 15.0787 2.36026 14.1037C2.31179 13.0496 2.3021 12.7329 2.3021 10.0625C2.3021 7.39206 2.3126 7.07623 2.36026 6.0213C2.40469 5.04634 2.56785 4.51727 2.70436 4.16428C2.88611 3.69739 3.10259 3.3646 3.45234 3.01403C3.8021 2.66428 4.1349 2.44699 4.60259 2.26605C4.95477 2.12874 5.48465 1.96638 6.45961 1.92195C7.51373 1.87349 7.83037 1.86379 10.5 1.86379C13.1704 1.86379 13.4863 1.87429 14.5412 1.92195C15.5162 1.96638 16.0452 2.12954 16.3982 2.26605C16.8651 2.44699 17.1979 2.66428 17.5485 3.01403C17.8982 3.36379 18.1147 3.69739 18.2964 4.16428C18.4338 4.51646 18.5961 5.04634 18.6406 6.0213C18.689 7.07623 18.6987 7.39206 18.6987 10.0625C18.6987 12.7321 18.689 13.0488 18.6406 14.1037C18.5961 15.0787 18.433 15.6085 18.2964 15.9607C18.1147 16.4276 17.8982 16.7604 17.5485 17.1102C17.1987 17.4599 16.8651 17.6764 16.3982 17.8581C16.046 17.9955 15.5162 18.1578 14.5412 18.2022C13.4871 18.2507 13.1704 18.2604 10.5 18.2604C7.83037 18.2604 7.51373 18.2507 6.45961 18.2022ZM6.37722 0.12308C5.3126 0.17155 4.58562 0.34037 3.94992 0.58754C3.29241 0.84279 2.73506 1.18528 2.17851 1.74101C1.62278 2.29675 1.28029 2.8541 1.02504 3.51242C0.77787 4.14812 0.60905 4.8751 0.56058 5.93972C0.51131 7.00596 0.5 7.34683 0.5 10.0625C0.5 12.7782 0.51131 13.119 0.56058 14.1853C0.60905 15.2499 0.77787 15.9769 1.02504 16.6126C1.28029 17.2701 1.62197 17.8283 2.17851 18.384C2.73425 18.9397 3.2916 19.2814 3.94992 19.5375C4.58643 19.7846 5.3126 19.9535 6.37722 20.0019C7.44427 20.0504 7.78433 20.0625 10.5 20.0625C13.2165 20.0625 13.5565 20.0512 14.6228 20.0019C15.6874 19.9535 16.4144 19.7846 17.0501 19.5375C17.7076 19.2814 18.2649 18.9397 18.8215 18.384C19.3772 17.8283 19.7189 17.2701 19.975 16.6126C20.2221 15.9769 20.3918 15.2499 20.4394 14.1853C20.4879 13.1182 20.4992 12.7782 20.4992 10.0625C20.4992 7.34683 20.4879 7.00596 20.4394 5.93972C20.391 4.8751 20.2221 4.14812 19.975 3.51242C19.7189 2.85491 19.3772 2.29756 18.8215 1.74101C18.2658 1.18528 17.7076 0.84279 17.0509 0.58754C16.4144 0.34037 15.6874 0.17074 14.6236 0.12308C13.5574 0.07462 13.2165 0.0625 10.5008 0.0625C7.78433 0.0625 7.44427 0.07381 6.37722 0.12308Z" fill="white"/>
</svg>
