<svg width="64" height="64" viewBox="0 0 64 64" fill="none" xmlns="http://www.w3.org/2000/svg">
<g clip-path="url(#clip0_24_1385)">
<path d="M32 26.6667C28.48 26.6667 26.712 27.7893 24.184 31.7973L23.5333 32.8587L22.48 34.6933C22.354 34.9188 22.2287 35.1445 22.104 35.3707C21.464 36.528 20.5813 37.3787 19.0667 38.416L17.6 39.3893C15.0933 41.0613 13.7813 42.3707 13.048 44.6027C12.7173 45.504 12.5253 46.8773 12.5333 48.016C12.5333 52.5147 15.728 56 20 56L20.6453 55.984C20.9627 55.968 21.2693 55.9387 21.5893 55.8933L22.2507 55.7787L22.6027 55.704L23.3787 55.5093L23.8107 55.3893L25.3307 54.936L27.3653 54.288L28.5787 53.9253C29.992 53.5253 31.0853 53.3333 32 53.3333C32.9173 53.3333 34.008 53.528 35.4213 53.9253L36.6347 54.288L38.672 54.9333L40.1893 55.3893L41.0213 55.6133C41.28 55.6773 41.52 55.7333 41.7493 55.7787L42.4107 55.8933C42.7307 55.9387 43.0373 55.968 43.3547 55.984L44 56C48.272 56 51.4667 52.5147 51.4667 48C51.4667 46.8613 51.272 45.496 50.9147 44.5173C50.2853 42.5867 49.1093 41.256 46.968 39.6373L46.2827 39.1307L44.8747 38.1173C43.1627 36.864 42.2 35.9147 41.5333 34.7093L40.8133 33.416L40.1413 32.264C37.4453 27.7413 35.8267 26.6667 32 26.6667ZM52.7467 18.6667H52.6667C49.416 18.72 46.4 21.5093 44.912 25.344C43.072 30.0773 43.984 35.264 47.7787 36.8987C48.4613 37.1893 49.184 37.3333 49.9147 37.3333C53.1973 37.3333 56.2613 34.5253 57.7627 30.656C59.592 25.9253 58.6693 20.736 54.8933 19.104C54.2154 18.8152 53.4835 18.6665 52.7467 18.6667ZM24.0667 8C23.768 8 23.5733 8.00533 23.3467 8.04L23.0987 8.08267C19.0133 8.632 16.7067 13.3867 17.4773 18.3627C18.2027 22.9627 21.376 26.6667 25.264 26.6667L25.7627 26.6533C25.8376 26.647 25.9123 26.6381 25.9867 26.6267L26.232 26.584C30.32 26.0347 32.624 21.28 31.8533 16.304C31.1333 11.6987 27.96 8 24.0667 8Z" fill="#F9A418"/>
<path d="M39.9254 8.00002C36.0347 8.00002 32.8667 11.7013 32.1494 16.3013C31.376 21.28 33.68 26.0347 37.9467 26.6133C38.2214 26.648 38.48 26.6667 38.736 26.6667C42.4427 26.6667 45.5174 23.2934 46.408 18.9787L46.5174 18.3653C47.2907 13.3867 44.9867 8.63202 40.72 8.05335C40.4567 8.01721 40.1912 7.99939 39.9254 8.00002ZM11.2454 18.6667C10.5147 18.6667 9.79469 18.8107 9.12002 19.096C5.31735 20.736 4.40802 25.928 6.24535 30.656C7.74669 34.5254 10.8054 37.3333 14.088 37.3333C14.8187 37.3333 15.5387 37.1893 16.2134 36.904C20.016 35.264 20.9254 30.072 19.088 25.344C17.5867 21.4747 14.528 18.6667 11.2454 18.6667Z" fill="#F9A418"/>
</g>
<defs>
<clipPath id="clip0_24_1385">
<rect width="64" height="64" fill="white"/>
</clipPath>
</defs>
</svg>
