<svg width="21" height="17" viewBox="0 0 21 17" fill="none" xmlns="http://www.w3.org/2000/svg">
<path d="M20.5 1.95668C19.7642 2.27825 18.9733 2.49482 18.1433 2.59244C18.9908 2.09285 19.6417 1.30122 19.9475 0.35782C19.155 0.8205 18.2767 1.15684 17.3417 1.33814C16.5942 0.55307 15.5267 0.0625 14.3467 0.0625C11.6975 0.0625 9.7508 2.49564 10.3492 5.02148C6.94 4.85331 3.91667 3.24544 1.8925 0.80163C0.8175 2.61705 1.335 4.99195 3.16167 6.1946C2.49 6.1732 1.85667 5.99195 1.30417 5.68924C1.25917 7.5604 2.62167 9.3111 4.595 9.7007C4.0175 9.855 3.385 9.891 2.74167 9.7696C3.26333 11.3742 4.77833 12.5416 6.575 12.5744C4.85 13.9058 2.67667 14.5006 0.5 14.2479C2.31583 15.3939 4.47333 16.0625 6.79 16.0625C14.4083 16.0625 18.7125 9.7286 18.4525 4.04773C19.2542 3.47759 19.95 2.76636 20.5 1.95668Z" fill="white"/>
</svg>
